<svg width="422" height="343" viewBox="0 0 422 343" fill="none" xmlns="http://www.w3.org/2000/svg">
<g clip-path="url(#clip0_1797_11456)">
<path d="M50.4517 172.584C50.4517 155.354 64.0019 140.469 69.0657 124.925C74.3155 108.813 72.3028 88.8662 82.0971 75.4575C91.9812 61.9146 111.698 57.6964 125.281 47.8412C138.729 38.0819 148.792 20.634 164.952 15.3996C180.541 10.3506 198.892 18.4035 216.173 18.4035C233.454 18.4035 251.806 10.3506 267.395 15.3996C283.554 20.634 293.611 38.0755 307.066 47.8412C320.648 57.6964 340.365 61.9146 350.249 75.4575C360.037 88.8662 358.031 108.813 363.28 124.925C368.344 140.469 381.895 155.354 381.895 172.584C381.895 189.815 368.344 204.7 363.28 220.243C358.031 236.355 360.044 256.302 350.249 269.711C340.365 283.254 320.648 287.472 307.066 297.327C293.618 307.086 283.554 324.534 267.395 329.769C251.806 334.818 233.454 326.765 216.173 326.765C198.892 326.765 180.541 334.818 164.952 329.769C148.792 324.534 138.735 307.093 125.281 297.327C111.698 287.472 91.9812 283.254 82.0971 269.711C72.3092 256.302 74.3155 236.355 69.0657 220.243C64.0019 204.7 50.4517 189.815 50.4517 172.584Z" fill="#F1F0EE"/>
<mask id="mask0_1797_11456" style="mask-type:alpha" maskUnits="userSpaceOnUse" x="50" y="13" width="332" height="319">
<path d="M50.4517 172.584C50.4517 155.354 64.0019 140.469 69.0657 124.925C74.3155 108.813 72.3028 88.8662 82.0971 75.4575C91.9812 61.9146 111.698 57.6964 125.281 47.8412C138.729 38.0819 148.792 20.634 164.952 15.3996C180.541 10.3506 198.892 18.4035 216.173 18.4035C233.454 18.4035 251.806 10.3506 267.395 15.3996C283.554 20.634 293.611 38.0755 307.066 47.8412C320.648 57.6964 340.365 61.9146 350.249 75.4575C360.037 88.8662 358.031 108.813 363.28 124.925C368.344 140.469 381.895 155.354 381.895 172.584C381.895 189.815 368.344 204.7 363.28 220.243C358.031 236.355 360.044 256.302 350.249 269.711C340.365 283.254 320.648 287.472 307.066 297.327C293.618 307.086 283.554 324.534 267.395 329.769C251.806 334.818 233.454 326.765 216.173 326.765C198.892 326.765 180.541 334.818 164.952 329.769C148.792 324.534 138.735 307.093 125.281 297.327C111.698 287.472 91.9812 283.254 82.0971 269.711C72.3092 256.302 74.3155 236.355 69.0657 220.243C64.0019 204.7 50.4517 189.815 50.4517 172.584Z" fill="#F1F0EE"/>
</mask>
<g mask="url(#mask0_1797_11456)">
<path d="M256.815 333.831L257.034 333.159L256.342 333.013C223.378 326.042 194.188 305.305 177.08 275.673C144.051 218.466 163.715 145.036 220.922 112.008C248.971 95.8139 282.13 91.8188 312.861 100.32L313.484 100.492L313.646 99.867C321.629 69.0145 341.688 42.2836 369.724 26.0971C426.931 -6.93117 500.355 12.7539 533.383 69.9607C550.483 99.5796 553.855 135.241 543.409 167.274L543.19 167.946L543.882 168.093C576.854 175.077 606.044 195.814 623.152 225.446C656.181 282.653 636.509 356.069 579.302 389.097C551.266 405.284 518.101 409.3 487.384 400.791L486.762 400.619L486.6 401.244C478.597 432.108 458.549 458.814 430.5 475.008C373.293 508.036 299.877 488.365 266.849 431.158C249.741 401.526 246.377 365.878 256.815 333.831Z" stroke="url(#paint0_linear_1797_11456)" stroke-width="1.27016"/>
<path d="M393.639 318.836L393.858 318.164L393.167 318.018C360.202 311.047 331.012 290.31 313.904 260.678C280.875 203.471 300.539 130.042 357.746 97.0135C385.795 80.8193 418.954 76.8242 449.686 85.3254L450.308 85.4976L450.47 84.8724C458.453 54.0199 478.513 27.2889 506.548 11.1025C563.755 -21.9258 637.179 -2.24069 670.207 54.9661C687.308 84.585 690.679 120.246 680.234 152.28L680.015 152.952L680.706 153.098C713.678 160.082 742.868 180.819 759.977 210.452C793.005 267.658 773.333 341.074 716.127 374.103C688.091 390.289 654.926 394.305 624.208 385.796L623.586 385.624L623.424 386.249C615.421 417.113 595.374 443.819 567.324 460.014C510.118 493.042 436.702 473.37 403.673 416.163C386.565 386.531 383.201 350.883 393.639 318.836Z" stroke="url(#paint1_linear_1797_11456)" stroke-width="1.27016"/>
</g>
<path d="M287.714 128.813L230.921 88.6454L287.714 51.8204L344.507 88.6454L287.714 128.813Z" fill="#8C7BFF" stroke="#26045D" stroke-width="0.889948"/>
<path d="M335.792 38.79H241.592V154.751H335.792V38.79Z" fill="white"/>
<path d="M288.498 55.6299C276.62 55.6299 266.991 65.2589 266.991 77.137C266.991 89.015 276.62 98.6441 288.498 98.6441C300.376 98.6441 310.005 89.015 310.005 77.137C310.005 65.2589 300.376 55.6299 288.498 55.6299Z" fill="#B4F4CB"/>
<path fill-rule="evenodd" clip-rule="evenodd" d="M296.471 71.315C297.311 72.1549 297.311 73.5166 296.471 74.3565L287.868 82.9594C287.029 83.7993 285.667 83.7993 284.827 82.9594L280.525 78.658C279.686 77.8181 279.686 76.4563 280.525 75.6164C281.365 74.7765 282.727 74.7765 283.567 75.6164L286.348 78.397L293.43 71.315C294.27 70.4751 295.631 70.4751 296.471 71.315Z" fill="#6ACA8C"/>
<path d="M335.79 155.117H241.591C241.388 155.117 241.225 154.953 241.225 154.752V38.7898C241.225 38.5871 241.39 38.4243 241.591 38.4243H335.79C335.993 38.4243 336.156 38.5888 336.156 38.7898V154.75C336.156 154.953 335.991 155.116 335.79 155.116V155.117ZM241.956 154.385H335.423V39.157H241.956V154.385Z" fill="#26045D"/>
<path d="M255.332 164.108H230.342V89.0312L287.715 123.895L345.089 89.0312V164.108H255.332Z" fill="#F1EDFF"/>
<path d="M345.084 164.472H230.339C230.137 164.472 229.975 164.308 229.975 164.108V88.7698C229.975 88.6373 230.046 88.5165 230.162 88.452C230.278 88.3874 230.419 88.3891 230.531 88.4586L287.715 123.468L344.897 88.4586C345.009 88.3891 345.15 88.3857 345.266 88.452C345.382 88.5165 345.453 88.6373 345.453 88.7698V164.108C345.453 164.309 345.289 164.472 345.089 164.472H345.084ZM230.703 163.742H344.718V89.4202L287.902 124.206C287.784 124.277 287.637 124.277 287.521 124.206L230.703 89.4202V163.742Z" fill="#26045D"/>
<path d="M155.326 157.596L137.167 185.534H179.074L197.699 157.596H155.326Z" fill="white"/>
<path d="M179.025 186.142H135.827L155.322 157.133H198.521L179.025 186.142ZM137.266 185.375H178.617L197.083 157.899H155.731L137.264 185.375H137.266Z" fill="#26045D"/>
<rect x="112.487" y="185.534" width="66.1204" height="3.72509" fill="white"/>
<path d="M179.137 189.914H112.088V185.375H179.137V189.914ZM112.853 189.148H178.371V186.142H112.853V189.148Z" fill="#26045D"/>
<path d="M166.498 175.501C164.979 175.501 163.745 174.263 163.745 172.74C163.745 171.217 164.981 169.979 166.498 169.979C168.016 169.979 169.252 171.217 169.252 172.74C169.252 174.263 168.016 175.501 166.498 175.501ZM166.498 170.746C165.403 170.746 164.511 171.641 164.511 172.74C164.511 173.839 165.403 174.734 166.498 174.734C167.593 174.734 168.485 173.839 168.485 172.74C168.485 171.641 167.593 170.746 166.498 170.746Z" fill="#26045D"/>
<path d="M79.3174 290.454H74.3095C74.098 290.454 73.9282 290.341 73.9282 290.202V224.367C73.9282 224.227 74.0998 224.115 74.3095 224.115C74.5191 224.115 74.6907 224.228 74.6907 224.367V289.95H78.9344V224.525C78.9344 224.385 79.106 224.273 79.3156 224.273C79.5253 224.273 79.6969 224.386 79.6969 224.525V290.202C79.6969 290.342 79.5253 290.454 79.3156 290.454H79.3174Z" fill="#26045D"/>
<path d="M139.22 224.524H72.0047C46.8818 224.524 26.4438 203.485 26.4438 177.622V154.714C26.4438 154.502 26.6159 154.332 26.8263 154.332H78.9477C79.1598 154.332 79.3301 154.504 79.3301 154.714V159.316C79.3301 176.214 92.6773 189.962 109.082 189.962C109.188 189.962 109.284 190.006 109.353 190.075C125.751 191.461 139.601 205.493 139.601 221.376V224.142C139.601 224.354 139.429 224.524 139.219 224.524H139.22ZM27.2105 155.098V177.624C27.2105 203.064 47.306 223.759 72.0047 223.759H138.836V221.377C138.836 205.051 123.818 190.731 106.697 190.731C106.588 190.731 106.49 190.686 106.421 190.613C90.8346 189.22 78.5635 175.715 78.5635 159.318V155.1H27.2105V155.098Z" fill="#26045D"/>
<path d="M79.0644 160.716L76.5959 197.442H52.0571L54.5256 160.716H79.0644Z" fill="#8C7BFF"/>
<path d="M145.397 274.666L163.935 268.637L176.136 306.38L157.597 312.407L145.397 274.666Z" fill="#D5D3CF"/>
<path d="M167.359 279.228L150.296 289.819L145.397 274.666L163.935 268.637L167.359 279.228Z" fill="#26045D"/>
<path d="M151.592 293.816L170.13 287.787L176.141 306.381L157.602 312.408L151.592 293.816Z" fill="#26045D"/>
<path d="M153.336 300.024L153.037 300.403C149.611 304.737 149.741 308.482 147.944 314.663L170.831 323.004L205.068 323.433L210.918 319.986L208.941 315.118L190.007 308.842L176.988 300.581L174.303 296.558H170.692L167.662 299.395V302.936C164.236 304.993 163.615 305.973 161.913 305.973C161.877 305.963 159.028 306.248 158.12 303.517L157.187 300.706C156.629 299.026 154.435 298.639 153.338 300.026L153.336 300.024Z" fill="white"/>
<path d="M210.919 319.988L200.236 322.039L171.932 321.467L147.945 314.663L144.494 317.801L143.049 325.687L152.277 329.746C152.277 329.746 158.915 329.716 167.339 329.746L169.377 327.728H172.535L174.595 329.746C187.762 329.782 202.022 329.746 202.022 329.746L209.684 325.807L210.92 323.413V319.986L210.919 319.988Z" fill="#26045D"/>
<path d="M176.346 305.477C176.224 305.477 176.104 305.419 176.031 305.312C175.911 305.138 175.955 304.899 176.128 304.778L179.902 302.161C180.076 302.04 180.314 302.085 180.436 302.259C180.556 302.433 180.513 302.671 180.339 302.792L176.565 305.409C176.499 305.454 176.422 305.477 176.348 305.477H176.346Z" fill="#26045D"/>
<path d="M179.611 307.672C179.49 307.672 179.37 307.614 179.297 307.507C179.177 307.333 179.22 307.094 179.394 306.973L183.168 304.356C183.342 304.236 183.58 304.278 183.702 304.454C183.822 304.628 183.778 304.866 183.604 304.987L179.83 307.604C179.764 307.649 179.688 307.672 179.613 307.672H179.611Z" fill="#26045D"/>
<path d="M182.873 309.87C182.751 309.87 182.632 309.812 182.558 309.705C182.439 309.531 182.482 309.293 182.656 309.171L186.432 306.554C186.604 306.433 186.844 306.478 186.965 306.652C187.085 306.826 187.042 307.064 186.868 307.185L183.094 309.802C183.028 309.847 182.951 309.87 182.877 309.87H182.873Z" fill="#26045D"/>
<path d="M147 285.231L114.87 196.656L122.193 193.984C132.17 190.343 143.202 195.503 146.831 205.51L172.39 275.969L147.002 285.233L147 285.231Z" fill="#FED101"/>
<path d="M94.2726 258.559L110.481 266.909L92.9045 301.222L76.6978 292.872L94.2726 258.559Z" fill="#D5D3CF"/>
<path d="M106.636 274.416H86.1509L94.2725 258.559L110.481 266.909L106.636 274.416Z" fill="#26045D"/>
<path d="M85.0871 276.49L101.296 284.842L92.9045 301.222L76.6978 292.872L85.0871 276.49Z" fill="#26045D"/>
<path d="M66.4009 295.847C70.8146 291.172 72.4069 287.782 77.4291 285.497L77.8671 285.297C79.4734 284.566 81.2483 285.916 80.9806 287.665L80.5303 290.593C80.094 293.439 82.7572 294.489 82.785 294.517C84.2991 295.296 85.2969 294.708 89.283 294.449L90.8962 291.301L94.884 290.167L98.0965 291.822L98.6528 296.633L107.157 309.564L120.302 315.414L122.661 320.108L117.107 323.868H95.3395L82.9605 313.757L66.4026 295.848L66.4009 295.847Z" fill="white"/>
<path d="M117.224 324.251H95.2019L82.6787 314.016L65.8774 295.846L66.1226 295.585C67.3794 294.255 68.4276 293.001 69.3524 291.897C71.7288 289.058 73.6062 286.816 77.2689 285.15L77.707 284.95C78.5901 284.549 79.5792 284.658 80.3528 285.244C81.1299 285.833 81.5053 286.76 81.3576 287.725L80.9073 290.653C80.5771 292.803 82.199 293.818 82.9117 294.154C82.9308 294.163 82.9482 294.171 82.9656 294.18C83.8765 294.648 84.5962 294.561 86.1676 294.37C86.9151 294.279 87.8365 294.166 89.0394 294.083L90.63 290.978L94.9238 289.757L98.4509 291.574L99.0211 296.496L107.414 309.256L120.582 315.117L123.155 320.233L117.224 324.249V324.251ZM95.4748 323.484H116.989L122.167 319.978L120.021 315.708L106.898 309.867L98.2823 296.765L97.7399 292.068L94.8456 290.576L91.1637 291.623L89.5279 294.816L89.3106 294.83C88.0225 294.914 87.0473 295.032 86.265 295.128C84.6361 295.326 83.7374 295.435 82.6127 294.856L82.6005 294.849C81.893 294.514 79.7374 293.257 80.1564 290.534L80.6066 287.607C80.7109 286.925 80.4467 286.268 79.8956 285.853C79.3498 285.44 78.6527 285.362 78.0304 285.646L77.5923 285.846C74.0877 287.44 72.2607 289.623 69.9452 292.388C69.0743 293.429 68.0939 294.599 66.9292 295.849L83.2263 313.476L95.4783 323.483L95.4748 323.484Z" fill="#26045D"/>
<path d="M61.9055 297.057L66.4044 295.847L84.6416 312.893L99.6575 321.73L111.984 322.064L122.68 320.094L122.654 323.521L121.399 325.904L113.707 329.731C113.707 329.731 109.22 329.8 100.375 329.731C100.375 329.731 86.6528 323.248 83.2352 321.476L82.3226 318.738L79.5116 317.29L76.7807 318.152C69.3005 314.265 63.3831 311.25 63.3831 311.25L57.0259 303.411L61.9037 297.059L61.9055 297.057Z" fill="#26045D"/>
<path d="M96.0293 300.734C95.8398 300.734 95.6747 300.593 95.6503 300.4C95.6225 300.19 95.7703 299.997 95.9806 299.971L100.53 299.373C100.739 299.345 100.931 299.492 100.959 299.703C100.987 299.913 100.839 300.106 100.629 300.132L96.0797 300.73C96.0623 300.732 96.0467 300.734 96.0293 300.734Z" fill="#26045D"/>
<path d="M97.9316 304.183C97.7422 304.183 97.577 304.042 97.5527 303.849C97.5249 303.638 97.6726 303.445 97.883 303.419L102.432 302.821C102.641 302.793 102.834 302.941 102.862 303.152C102.889 303.362 102.742 303.555 102.531 303.581L97.9821 304.179C97.9647 304.181 97.949 304.183 97.9316 304.183Z" fill="#26045D"/>
<path d="M99.8301 307.633C99.6406 307.633 99.4755 307.492 99.4511 307.299C99.4233 307.089 99.5711 306.897 99.7814 306.869L104.331 306.271C104.541 306.244 104.732 306.391 104.76 306.602C104.788 306.812 104.64 307.003 104.43 307.031L99.8805 307.629C99.8631 307.631 99.8475 307.633 99.8301 307.633Z" fill="#26045D"/>
<path d="M130.538 192.641H82.8566L83.3989 184.563H52.9984L52.0284 198.884C51.2618 210.295 60.2839 219.974 71.6876 219.974H107.308L85.6814 262.087L109.933 274.563L142.156 211.737C146.628 203.016 140.315 192.639 130.536 192.639L130.538 192.641Z" fill="#FED101"/>
<path d="M130.578 192.64C130.076 194.022 129.799 195.514 129.799 197.07C129.799 204.22 135.579 210.017 142.708 210.017C142.771 210.017 142.834 210.013 142.898 210.011C145.787 201.717 139.699 192.666 130.58 192.64H130.578Z" fill="#FCB503"/>
<path d="M82.9419 191.382L83.4008 184.563H53.0002L52.3501 194.169C57.0263 195.662 63.1245 195.036 65.6295 193.428C68.5517 191.552 74.5577 189.296 82.9436 191.382H82.9419Z" fill="#26045D"/>
<path d="M110.1 275.081L85.1664 262.254L106.682 220.358H71.6889C66.0774 220.358 60.8745 218.098 57.0362 213.991C53.1823 209.869 51.2683 204.494 51.6473 198.858L52.6173 184.537C52.6312 184.325 52.8172 184.172 53.0258 184.181C53.2379 184.195 53.3961 184.377 53.3822 184.59L52.4122 198.91C52.0471 204.332 53.888 209.504 57.596 213.47C61.2882 217.418 66.293 219.593 71.6889 219.593H107.937L86.199 261.924L109.768 274.048L141.816 211.564C143.861 207.58 143.687 202.919 141.352 199.099C139.028 195.295 134.986 193.025 130.538 193.025H74.1556C73.9436 193.025 73.7732 192.853 73.7732 192.642C73.7732 192.432 73.9453 192.26 74.1556 192.26H130.538C135.254 192.26 139.541 194.668 142.006 198.701C144.479 202.752 144.664 207.693 142.498 211.916L110.1 275.085V275.081Z" fill="#26045D"/>
<path d="M49.6808 137.491C52.7952 137.491 55.32 134.958 55.32 131.833C55.32 128.709 52.7952 126.176 49.6808 126.176C46.5663 126.176 44.0415 128.709 44.0415 131.833C44.0415 134.958 46.5663 137.491 49.6808 137.491Z" fill="#26045D"/>
<path d="M39.5948 137.362C42.7093 137.362 45.2341 134.829 45.2341 131.705C45.2341 128.581 42.7093 126.048 39.5948 126.048C36.4803 126.048 33.9556 128.581 33.9556 131.705C33.9556 134.829 36.4803 137.362 39.5948 137.362Z" fill="#26045D"/>
<path d="M59.7667 137.617C62.8812 137.617 65.406 135.085 65.406 131.96C65.406 128.836 62.8812 126.303 59.7667 126.303C56.6522 126.303 54.1274 128.836 54.1274 131.96C54.1274 135.085 56.6522 137.617 59.7667 137.617Z" fill="#26045D"/>
<path d="M79.9308 137.875C83.0452 137.875 85.57 135.343 85.57 132.218C85.57 129.094 83.0452 126.561 79.9308 126.561C76.8163 126.561 74.2915 129.094 74.2915 132.218C74.2915 135.343 76.8163 137.875 79.9308 137.875Z" fill="#26045D"/>
<path d="M100.103 138.131C103.217 138.131 105.742 135.598 105.742 132.474C105.742 129.349 103.217 126.816 100.103 126.816C96.9882 126.816 94.4634 129.349 94.4634 132.474C94.4634 135.598 96.9882 138.131 100.103 138.131Z" fill="#26045D"/>
<path d="M90.0167 138.004C93.1312 138.004 95.656 135.471 95.656 132.347C95.656 129.222 93.1312 126.689 90.0167 126.689C86.9022 126.689 84.3774 129.222 84.3774 132.347C84.3774 135.471 86.9022 138.004 90.0167 138.004Z" fill="#26045D"/>
<path d="M61.7664 133.884L60.6626 152.742L68.7929 153.218L69.8967 134.36L61.7664 133.884Z" fill="#D5D3CF"/>
<path d="M76.0153 134.752C76.2577 130.469 73.2932 126.818 69.3939 126.597C65.4946 126.376 62.137 129.67 61.8945 133.953C61.6521 138.236 64.6166 141.887 68.5159 142.108C72.4153 142.328 75.7728 139.035 76.0153 134.752Z" fill="#D5D3CF"/>
<path d="M67.0884 138.633C67.5716 139.131 68.2114 139.488 68.9502 139.608C70.5964 139.874 72.1522 138.883 72.6546 137.341L67.0884 138.633Z" fill="white"/>
<path d="M69.0199 142.508C68.8861 142.508 68.7522 142.505 68.6183 142.496C67.8743 142.453 67.1459 142.287 66.4541 142.006C66.2576 141.926 66.1638 141.702 66.2437 141.507C66.3237 141.31 66.548 141.216 66.7426 141.296C67.3563 141.547 68.0012 141.693 68.6618 141.731C70.4036 141.828 72.0881 141.182 73.4023 139.897C74.727 138.604 75.5179 136.822 75.6309 134.885C75.8621 130.898 73.1138 127.482 69.5032 127.272C66.1325 127.075 63.1686 129.701 62.6123 133.378C62.581 133.588 62.3828 133.73 62.176 133.699C61.9674 133.668 61.8231 133.473 61.8544 133.263C62.4715 129.191 65.7744 126.286 69.5484 126.507C73.5796 126.743 76.6531 130.521 76.3958 134.93C76.2724 137.06 75.398 139.019 73.9377 140.446C72.5679 141.785 70.8348 142.51 69.0182 142.51L69.0199 142.508Z" fill="#26045D"/>
<path d="M69.4274 131.46L75.9654 135.178C75.9915 134.982 76.0158 134.784 76.028 134.582C76.2766 130.317 73.3301 126.675 69.4483 126.449C65.5665 126.221 61.9577 129.652 61.7108 133.916C61.6934 134.205 61.6952 134.492 61.7056 134.773L69.4292 131.461L69.4274 131.46Z" fill="#26045D"/>
<path d="M47.897 186.541L57.411 146.55H70.8138C75.0781 146.55 78.6365 149.766 79.125 153.912L79.3075 154.843C79.6986 156.844 81.0285 158.495 82.8329 159.436C84.9155 160.521 86.3322 162.708 86.3166 165.225C86.3062 166.842 85.7064 168.314 84.7225 169.441C83.3735 170.986 82.8798 173.106 83.2744 175.122L85.3605 186.543H47.897V186.541Z" fill="#8C7BFF"/>
<path d="M85.3594 186.927C85.1786 186.927 85.017 186.799 84.9822 186.613L82.8962 175.192C82.472 173.024 83.0457 170.78 84.4329 169.191C85.3907 168.094 85.9227 166.684 85.9331 165.224C85.947 162.925 84.6919 160.839 82.6563 159.777C80.6919 158.753 79.3343 156.981 78.931 154.918L78.7484 153.988C78.2721 149.954 74.8632 146.934 70.8145 146.934H69.17C68.958 146.934 68.7876 146.762 68.7876 146.552C68.7876 146.342 68.9597 146.169 69.17 146.169H70.8145C75.2526 146.169 78.9883 149.48 79.5064 153.871L79.6837 154.773C80.0418 156.607 81.2552 158.184 83.0109 159.099C85.3021 160.293 86.7154 162.644 86.6997 165.229C86.6893 166.873 86.0895 168.459 85.01 169.695C83.7775 171.107 83.2699 173.109 83.6489 175.05L85.7367 186.475C85.7749 186.684 85.6376 186.884 85.429 186.92C85.4064 186.925 85.382 186.927 85.3594 186.927Z" fill="#26045D"/>
<path d="M74.2251 171.033C74.1034 171.033 73.9835 170.976 73.9105 170.868C73.7905 170.694 73.834 170.456 74.0078 170.335C75.7062 169.159 76.6901 167.226 76.6397 165.164C76.5736 162.523 74.8335 160.239 72.3112 159.481C72.1078 159.42 71.9931 159.206 72.0539 159.003C72.1147 158.8 72.3286 158.687 72.5319 158.746C75.3724 159.601 77.3316 162.172 77.4063 165.145C77.4637 167.468 76.3563 169.643 74.4441 170.966C74.3781 171.011 74.3016 171.033 74.2269 171.033H74.2251Z" fill="#26045D"/>
<path d="M98.9712 175.827V187.995H121.21C121.883 187.995 122.524 188.282 122.975 188.784L123.915 189.836C124.762 190.784 126.265 190.704 127.008 189.671C127.503 188.982 127.5 188.068 127.032 187.383L127.557 186.653C128.158 185.815 128.089 184.669 127.388 183.911L126.86 183.339C127.392 182.512 127.301 181.422 126.627 180.691L125.745 179.735L125.759 179.727C126.128 178.939 125.996 177.988 125.389 177.331L124.607 176.482C123.108 174.859 121.001 173.936 118.796 173.936H111.362C108.28 173.936 107.487 175.825 106.121 175.825H98.9729L98.9712 175.827Z" fill="#D5D3CF"/>
<path d="M126.858 183.723C126.787 183.723 126.715 183.704 126.651 183.662C126.474 183.548 126.422 183.311 126.535 183.132C126.974 182.447 126.896 181.55 126.343 180.952L124.96 179.452C123.92 178.325 122.446 177.679 120.916 177.679H117.108C116.895 177.679 116.725 177.506 116.725 177.296C116.725 177.086 116.897 176.914 117.108 176.914H120.916C122.66 176.914 124.339 177.649 125.523 178.932L126.907 180.432C127.696 181.288 127.807 182.567 127.18 183.546C127.107 183.661 126.983 183.722 126.856 183.722L126.858 183.723Z" fill="#26045D"/>
<path d="M127.023 187.776C126.945 187.776 126.868 187.753 126.8 187.704C126.628 187.581 126.59 187.341 126.713 187.169L127.244 186.432C127.737 185.745 127.678 184.794 127.104 184.173L125.444 182.374C124.58 181.437 123.355 180.9 122.082 180.9H117.072C116.86 180.9 116.69 180.728 116.69 180.517C116.69 180.307 116.862 180.135 117.072 180.135H122.082C123.567 180.135 124.999 180.762 126.008 181.854L127.668 183.654C128.486 184.542 128.57 185.898 127.866 186.88L127.336 187.617C127.261 187.722 127.143 187.777 127.025 187.777L127.023 187.776Z" fill="#26045D"/>
<path d="M113.409 188.379H98.5845V175.444H106.117C106.546 175.444 106.946 175.18 107.45 174.845C108.269 174.301 109.392 173.555 111.358 173.555H118.791C121.098 173.555 123.318 174.528 124.884 176.225L125.666 177.073C126.374 177.84 126.546 178.946 126.103 179.892C126.012 180.083 125.785 180.166 125.593 180.076C125.402 179.985 125.319 179.758 125.409 179.566C125.719 178.904 125.599 178.13 125.103 177.593L124.321 176.745C122.899 175.205 120.884 174.321 118.791 174.321H111.358C109.623 174.321 108.693 174.939 107.874 175.483C107.311 175.856 106.777 176.211 106.117 176.211H99.3511V187.612H113.409C113.621 187.612 113.792 187.784 113.792 187.995C113.792 188.205 113.62 188.377 113.409 188.377V188.379Z" fill="#26045D"/>
<path d="M125.385 190.885C124.711 190.885 124.075 190.601 123.623 190.094L122.682 189.042C122.307 188.621 121.768 188.38 121.205 188.38H109.297C107.098 188.38 105.046 187.288 103.81 185.461C103.692 185.285 103.737 185.047 103.913 184.929C104.089 184.81 104.327 184.856 104.445 185.031C105.538 186.648 107.353 187.613 109.297 187.613H121.205C121.985 187.613 122.733 187.947 123.254 188.531L124.194 189.583C124.52 189.946 124.985 190.139 125.474 190.115C125.961 190.088 126.404 189.845 126.689 189.449C127.134 188.83 127.082 187.973 126.564 187.413L124.831 185.537C123.949 184.583 122.701 184.035 121.404 184.035H117.236C117.024 184.035 116.853 183.863 116.853 183.652C116.853 183.442 117.025 183.27 117.236 183.27H121.404C122.915 183.27 124.368 183.908 125.394 185.019L127.127 186.897C127.89 187.722 127.967 188.986 127.311 189.899C126.889 190.487 126.235 190.845 125.514 190.883C125.47 190.885 125.429 190.886 125.385 190.886V190.885Z" fill="#26045D"/>
<path d="M101.361 174.006H76.1725L60.3481 146.55H55.5537C49.7702 146.55 46.1544 152.826 49.0401 157.852L62.2012 180.769C65.3146 186.191 71.0791 189.533 77.318 189.533H101.361V174.006Z" fill="#8C7BFF"/>
<path d="M68.7905 179.792C66.5584 179.792 64.5037 180.556 62.8696 181.833C66.0978 186.625 71.5024 189.533 77.3224 189.533H78.4332C78.4332 189.511 78.4332 189.488 78.4332 189.466C78.4332 184.123 74.1151 179.792 68.7888 179.792H68.7905Z" fill="#6155FF"/>
<path d="M101.743 189.916H77.3176C70.9604 189.916 65.0413 186.484 61.867 180.959L48.7059 158.042C47.2787 155.556 47.2839 152.592 48.7198 150.111C50.1487 147.64 52.7041 146.166 55.5516 146.166H61.0187C61.2308 146.166 61.4012 146.338 61.4012 146.548C61.4012 146.759 61.2291 146.931 61.0187 146.931H55.5516C52.9805 146.931 50.6737 148.263 49.3821 150.493C48.0853 152.734 48.0801 155.413 49.3699 157.658L62.5311 180.575C65.568 185.862 71.2334 189.146 77.3159 189.146H100.975V174.386H75.9478L66.7449 158.419C66.6389 158.237 66.7014 158.002 66.8857 157.896C67.0682 157.79 67.3029 157.852 67.4089 158.037L76.3893 173.619H101.74V189.912L101.743 189.916Z" fill="#26045D"/>
<path d="M264.343 194.955H68.9907V189.15H123.586C123.798 189.15 123.968 189.322 123.968 189.532C123.968 189.743 123.796 189.915 123.586 189.915H69.7573V194.188H263.576V189.915H127.104C126.892 189.915 126.722 189.743 126.722 189.532C126.722 189.322 126.894 189.15 127.104 189.15H264.343V194.955Z" fill="#26045D"/>
<path d="M133.839 330.148H127.094L101.37 212.511L75.6457 330.148H68.9009L69.0017 329.682L98.6304 194.188H104.108L133.839 330.148ZM127.712 329.381H132.888L103.493 194.955H99.2493L69.8535 329.381H75.0286L101.37 208.922L127.712 329.381Z" fill="#26045D"/>
<path d="M269.308 330.148H262.563L236.839 212.511L211.114 330.148H204.37L234.101 194.188H239.578L269.31 330.148H269.308ZM263.18 329.381H268.357L238.961 194.955H234.718L205.322 329.381H210.499L236.841 208.922L263.182 329.381H263.18Z" fill="#26045D"/>
<path d="M317.214 232.354H308.52L314.668 226.207L311.708 223.247L305.561 229.394V220.701H301.375V229.394L295.227 223.247L292.268 226.207L298.415 232.354H289.721V236.54H298.415L292.268 242.688L295.227 245.647L301.375 239.5V248.194H305.561V239.5L311.708 245.647L314.668 242.688L308.52 236.54H317.214V232.354Z" fill="#F67C77"/>
<line x1="418.112" y1="331.285" x2="-8.29529" y2="331.285" stroke="#F1F0EE" stroke-width="1.87432"/>
</g>
<defs>
<linearGradient id="paint0_linear_1797_11456" x1="247.347" y1="149.102" x2="113.282" y2="255.042" gradientUnits="userSpaceOnUse">
<stop stop-color="white"/>
<stop offset="1" stop-color="white" stop-opacity="0"/>
</linearGradient>
<linearGradient id="paint1_linear_1797_11456" x1="403.116" y1="319.103" x2="392.3" y2="175.248" gradientUnits="userSpaceOnUse">
<stop stop-color="white"/>
<stop offset="1" stop-color="white" stop-opacity="0"/>
</linearGradient>
<clipPath id="clip0_1797_11456">
<rect width="421.721" height="343" fill="white" transform="translate(0.13916)"/>
</clipPath>
</defs>
</svg>
